<mxfile host="app.diagrams.net" modified="2023-08-09T09:50:26.655Z" agent="Mozilla/5.0 (Macintosh; Intel Mac OS X 10_15_7) AppleWebKit/537.36 (KHTML, like Gecko) Chrome/115.0.0.0 Safari/537.36" version="21.6.6" etag="gIW4-vzCx8Vr__qHXEAL" type="github">
  <diagram name="第 1 页" id="SnncVNtTezImk0GeRDh2">
    <mxGraphModel>
      <root>
        <mxCell id="0" />
        <mxCell id="1" parent="0" />
      </root>
    </mxGraphModel>
  </diagram>
</mxfile>
